<svg width="768" height="97" viewBox="0 0 768 97" fill="none" xmlns="http://www.w3.org/2000/svg">
<path fill-rule="evenodd" clip-rule="evenodd" d="M768 0.5C768 0.223858 767.776 0 767.5 0H0.5C0.223858 0 0 0.223858 0 0.5C0 0.776142 0.22386 1 0.500002 1H316C324.837 1 332 8.16344 332 17V81C332 89.8366 339.163 97 348 97H412C420.837 97 428 89.8366 428 81V17C428 8.16344 435.163 1 444 1H767.5C767.776 1 768 0.776142 768 0.5Z" fill="#E5E5E5"/>
<path fill-rule="evenodd" clip-rule="evenodd" d="M350.15 81V60.5545C348.761 56.9705 348 53.0742 348 49C348 31.3269 362.327 17 380 17C397.673 17 412 31.3269 412 49C412 53.0742 411.239 56.9705 409.85 60.5545V81H380H350.15ZM363.752 59.2107H371.012L372.978 57.587C373.505 57.1515 373.83 55.9331 373.813 55.3763C373.8 54.9309 373.465 54.4177 373.299 54.2168C373.133 54.0159 372.693 53.5898 372.258 53.4928C371.714 53.3716 370.456 53.4598 369.929 53.8954L367.405 55.9797C366.608 56.638 365.088 57.9986 363.752 59.2107ZM378.827 57.8427C378.698 57.9843 378.352 58.4991 377.896 59.2107H382.006C381.55 58.4991 381.205 57.9843 381.075 57.8427C381.039 57.8032 381.004 57.7654 380.971 57.7294C380.516 57.231 380.361 57.0611 379.951 57.0611C379.541 57.0611 379.386 57.231 378.931 57.7294L378.93 57.7307C378.897 57.7663 378.863 57.8037 378.827 57.8427ZM388.844 59.2107H396.103C394.767 57.9986 393.248 56.638 392.45 55.9797L389.927 53.8954C389.399 53.4598 388.142 53.3716 387.598 53.4928C387.163 53.5898 386.722 54.0159 386.556 54.2168C386.391 54.4177 386.055 54.9309 386.042 55.3763C386.026 55.9331 386.351 57.1515 386.878 57.587L388.844 59.2107ZM374.235 28.0412C375.603 30.2885 378.398 34.8516 378.827 35.3206C378.846 35.3405 378.864 35.36 378.881 35.3791C378.898 35.3978 378.915 35.4161 378.931 35.434C379.386 35.9323 379.541 36.1023 379.951 36.1023C380.361 36.1023 380.516 35.9323 380.971 35.434L380.972 35.4336L380.973 35.4324L380.973 35.4323C381.005 35.3968 381.039 35.3595 381.075 35.3206C381.505 34.8516 384.299 30.2885 385.667 28.0412C384.964 27.7676 382.589 27.3084 379.951 27.3084C377.313 27.3084 374.939 27.7676 374.235 28.0412ZM370.52 29.3598L368.632 30.2813C369.337 31.9486 370.923 35.6432 371.626 37.0832L373.062 40.0247C373.362 40.6394 374.471 41.2399 375.016 41.3543C375.452 41.4459 376.029 41.2402 376.263 41.1259C376.498 41.0116 377.015 40.6829 377.211 40.2828C377.456 39.7826 377.665 38.5391 377.365 37.9245L375.929 34.9829C375.226 33.5429 373.288 30.0198 372.408 28.4382L370.52 29.3598ZM358.795 44.0538L358.325 46.1013C360.065 46.601 363.935 47.69 365.497 48.0485L368.688 48.7809C369.354 48.934 370.518 48.4493 370.95 48.0972C371.295 47.8156 371.498 47.2373 371.556 46.9833C371.615 46.7294 371.684 46.1205 371.496 45.7164C371.261 45.2113 370.425 44.2676 369.759 44.1145L366.568 43.3821C365.007 43.0236 361.049 42.3155 359.265 42.0063L358.795 44.0538ZM401.535 46.1013L401.065 44.0538L400.595 42.0063C398.811 42.3155 394.853 43.0236 393.291 43.3821L390.101 44.1145C389.435 44.2676 388.599 45.2113 388.364 45.7164C388.176 46.1205 388.245 46.7294 388.304 46.9833C388.362 47.2373 388.565 47.8156 388.91 48.0972C389.342 48.4493 390.506 48.934 391.172 48.7809L394.363 48.0485C395.925 47.69 399.795 46.601 401.535 46.1013ZM389.312 29.3598L391.199 30.2813C390.494 31.9486 388.908 35.6432 388.205 37.0832L386.769 40.0247C386.469 40.6394 385.361 41.2399 384.816 41.3543C384.38 41.4459 383.802 41.2402 383.568 41.1259C383.334 41.0116 382.817 40.6829 382.62 40.2828C382.375 39.7826 382.167 38.5391 382.467 37.9245L383.903 34.9829C384.606 33.5429 386.543 30.0198 387.424 28.4382L389.312 29.3598ZM360.005 40.2643C362.614 40.5981 367.924 41.2627 368.558 41.2195C368.61 41.216 368.659 41.2127 368.706 41.2096L368.708 41.2095L368.711 41.2093L368.712 41.2093C369.385 41.1649 369.615 41.1498 369.87 40.8294C370.126 40.509 370.09 40.2818 369.985 39.6153C369.977 39.5671 369.969 39.5166 369.961 39.4636C369.863 38.835 368.042 33.8036 367.14 31.3322C366.487 31.7111 364.646 33.2796 363 35.3408C361.353 37.4021 360.23 39.5438 360.005 40.2643ZM391.307 41.2195C391.942 41.2627 397.251 40.5981 399.861 40.2643C399.635 39.5438 398.512 37.4021 396.866 35.3408C395.219 33.2796 393.378 31.7111 392.725 31.3322C391.823 33.8036 390.002 38.835 389.904 39.4636C389.901 39.487 389.897 39.51 389.893 39.5324C389.889 39.557 389.886 39.581 389.882 39.6045L389.882 39.6072L389.881 39.6115L389.88 39.6153C389.775 40.2818 389.739 40.509 389.995 40.8294C390.251 41.1498 390.48 41.1649 391.154 41.2093C391.202 41.2125 391.253 41.2158 391.307 41.2195ZM401.671 47.8773C399.187 48.7442 394.14 50.5209 393.591 50.843C393.545 50.8702 393.501 50.896 393.458 50.9206C392.876 51.261 392.677 51.3771 392.591 51.778C392.505 52.179 392.639 52.3662 393.031 52.9154L393.034 52.9189C393.061 52.9576 393.09 52.9981 393.12 53.0405C393.489 53.5591 397.365 57.2474 399.276 59.0558C399.691 58.4252 400.637 56.1997 401.19 53.62C401.743 51.0404 401.791 48.6225 401.671 47.8773ZM366.274 50.843C365.726 50.5209 360.678 48.7442 358.194 47.8773C358.074 48.6225 358.123 51.0404 358.675 53.62C359.228 56.1997 360.174 58.4252 360.589 59.0558C362.5 57.2474 366.376 53.5591 366.745 53.0405C366.755 53.0261 366.765 53.012 366.775 52.9981C366.795 52.9704 366.814 52.9437 366.833 52.9177L366.834 52.9154C367.226 52.3662 367.36 52.179 367.274 51.778C367.188 51.3771 366.989 51.261 366.407 50.9206L366.36 50.8929C366.332 50.8768 366.304 50.8602 366.274 50.843ZM383.86 48.9511C383.86 51.1097 382.11 52.8595 379.951 52.8595C377.793 52.8595 376.043 51.1097 376.043 48.9511C376.043 46.7926 377.793 45.0427 379.951 45.0427C382.11 45.0427 383.86 46.7926 383.86 48.9511ZM400.763 61.5557H401.447C401.447 61.7186 401.574 62.0443 402.082 62.0443C402.591 62.0443 402.652 61.7186 402.62 61.5557H403.304C403.336 61.914 403.138 62.6305 402.082 62.6305C401.027 62.6305 400.763 61.914 400.763 61.5557ZM399.786 63.1191H398.809V68.2977H399.591H399.786H400.177L404.379 64.1939H404.476V68.2977H405.453V63.1191H404.818H404.476H404.281L400.079 67.2229H399.786V63.1191ZM364.708 63.1191H365.685V67.2229H365.881L370.082 63.1191H370.473H370.62H371.45V68.2977H370.473V64.1939H370.18L365.979 68.2977H365.685H365.392H364.708V63.1191ZM398.76 73.0855H399.786V72.8901C399.786 72.4584 400.136 72.1084 400.568 72.1084H404.476C404.854 72.1084 405.16 72.4146 405.16 72.7924V73.0855C405.16 73.4632 404.854 73.7695 404.476 73.7695H400.47V74.7466H404.476C404.854 74.7466 405.16 75.0528 405.16 75.4305V75.8214C405.16 76.1991 404.854 76.5053 404.476 76.5053H400.568C400.136 76.5053 399.786 76.1554 399.786 75.7237V75.4794H398.76V76.1145C398.76 76.816 399.329 77.3847 400.031 77.3847H405.014C405.715 77.3847 406.284 76.8161 406.284 76.1146V75.3328C406.284 74.3557 405.16 74.2092 405.16 74.2092C405.16 74.2092 406.284 74.0137 406.284 73.0855V72.4015C406.284 71.7 405.715 71.1313 405.014 71.1313H400.031C399.329 71.1313 398.76 71.7 398.76 72.4015V73.0855ZM362.656 72.1084H361.777V77.3847H362.461H362.656H367.835V76.6031H362.656V75.1374H367.835V74.3557H362.656V72.8901H367.835V72.1084H362.656ZM353.472 72.1084H354.351V76.6031H359.139V72.1084H360.018V76.6031H360.605V77.0916V77.3847V78.1664H359.627V77.3847H359.139H354.351H353.863H353.472V72.1084ZM373.795 63.1191H372.818V68.2977H373.795V66.0504H378.485V68.2977H379.463V63.1191H378.485V65.2687H373.795V63.1191ZM369.301 72.1084H370.278V74.258H374.968V72.1084H375.945V77.3847H374.968V75.1374H370.278V77.3847H369.301V72.1084ZM377.215 72.8901V72.1084H379.951H380.928H383.86V72.8901H380.928V77.3847H379.951V72.8901H377.215ZM380.831 63.1191H381.808V65.2687H386.498V63.1191H387.475V68.2977H386.498V66.0504H381.808V68.2977H380.831V63.1191ZM397.344 63.1191H396.366V68.2977H397.344V63.1191ZM354.351 63.1191H355.231V67.516H358.357V63.1191H359.237V67.516H362.363V63.1191H363.243V68.2977H362.559H362.363H359.237H358.357H355.231H354.351V67.516V63.1191ZM389.82 63.1191H388.843V68.2977H389.82V68.2782C389.883 68.291 389.948 68.2977 390.015 68.2977H394.315C394.854 68.2977 395.292 67.8602 395.292 67.3206V65.171C395.292 64.6314 394.854 64.1939 394.315 64.1939H390.015C389.948 64.1939 389.883 64.2006 389.82 64.2134V63.1191ZM389.82 64.9756V67.516H393.924C394.14 67.516 394.315 67.341 394.315 67.1252V65.3664C394.315 65.1506 394.14 64.9756 393.924 64.9756H389.82ZM385.13 77.3847H386.107V76.1927C386.17 76.2055 386.235 76.2122 386.302 76.2122H390.602C391.141 76.2122 391.579 75.7747 391.579 75.2351V73.0855C391.579 72.5459 391.141 72.1084 390.602 72.1084H386.302C386.235 72.1084 386.17 72.1151 386.107 72.1279V72.1084H385.13V77.3847ZM386.107 72.8901V75.4305H390.211C390.427 75.4305 390.602 75.2555 390.602 75.0397V73.2809C390.602 73.0651 390.427 72.8901 390.211 72.8901H386.107ZM397.246 71.229H394.608V72.1084H396.171V77.3847H397.246V72.1084V71.5221V71.229Z" fill="#1A1E29"/>
</svg>
