<svg width="96" height="89" viewBox="0 0 96 89" fill="none" xmlns="http://www.w3.org/2000/svg">
<path fill-rule="evenodd" clip-rule="evenodd" d="M68.2003 0C83.5585 0 96 19.8016 96 44.2288C96.2207 55.2351 93.3893 66.0876 87.8196 75.5832C86.8709 78.0097 88.3324 79.7058 89.2452 80.7651C89.4724 81.0288 89.6657 81.2531 89.7793 81.4394C91.2148 83.718 88.1842 87.2271 84.5611 88.4121C84.5611 89.3235 23.6069 88.4121 23.6069 88.4121C20.075 88.6627 16.4747 86.9537 18.5255 83.3534C19.1521 82.1527 19.4981 80.8255 19.5375 79.4717C19.577 78.1179 19.3089 76.7728 18.7534 75.5376C12.4091 66.3449 9.1023 55.3965 9.29694 44.2288C9.29694 20.1206 23.3107 0.524092 40.7425 0H53.9587C48.1243 4.6398 44.0423 10.4629 41.3506 16.9364L38 13.5858L34 17.5858L30 13.5858L26 17.5858L22 13.5858L17.2929 18.2929L18.7071 19.7071L22 16.4142L26 20.4142L30 16.4142L34 20.4142L38 16.4142L40.5573 18.9715C40.272 19.7541 40.0057 20.5451 39.7578 21.3436L38 19.5858L34 23.5858L30 19.5858L26 23.5858L22 19.5858L17.2929 24.2929L18.7071 25.7071L22 22.4142L26 26.4142L30 22.4142L34 26.4142L38 22.4142L39.1264 23.5406C37.6643 29.0592 37.0282 34.8862 37.0282 40.7425C37.0282 57.4223 42.8388 71.9373 51.4066 79.4797C44.7073 71.4132 40.4007 58.63 40.4007 44.2516C40.4007 19.8016 52.8422 0 68.2003 0ZM10.2768 61.6606L2.87111 67.1977L4.51175 68.8611L10.9148 62.4809L10.2768 61.6606ZM9.5248 58.2426L1.09376 62.0252L2.32423 64.0076L9.95775 59.2452L9.5248 58.3109V58.2426ZM9.11464 54.6879L0 56.1462L0.683598 58.4249L9.31972 55.7361L9.11464 54.6879ZM18.0926 43.7503C18.0926 43.7503 14.7201 53.8448 14.5606 54.6879C14.4011 55.531 23.6753 62.7771 23.6753 62.7771L24.1994 53.3662L18.0926 43.7503ZM69.5448 15.7457C65.5521 15.7664 61.9007 18.5198 59.1313 23.0145C63.0506 28.187 65.6027 36.6864 65.6027 46.0745C65.7939 53.4856 63.9918 60.8121 60.3845 67.2889C61.382 68.8351 62.724 70.1294 64.3053 71.0703C65.8866 72.0112 67.6643 72.5731 69.4992 72.7121C78.1581 72.7121 85.1764 59.9516 85.1764 44.2288C85.1764 28.5337 78.1827 15.7904 69.5448 15.7457ZM69.5448 15.7457L69.4992 15.7455H69.5903L69.5448 15.7457ZM69.5903 12.7149C59.9971 12.7149 52.2269 26.8198 52.2269 44.2288C52.2269 61.6378 59.9971 75.7427 69.5903 75.7427C79.1835 75.7427 86.9537 61.6378 86.9537 44.2288C86.9537 26.8198 79.1835 12.7149 69.5903 12.7149Z" fill="white"/>
</svg>
