<svg width="16" height="16" viewBox="0 0 16 16" fill="none" xmlns="http://www.w3.org/2000/svg">
<path fill-rule="evenodd" clip-rule="evenodd" d="M7.5 3V1H8.5V3H7.5ZM4.35355 3.64645L2.35355 1.64645L1.64645 2.35356L3.64645 4.35356L4.35355 3.64645ZM14.3536 13.6465L12.3536 11.6465L11.6464 12.3536L13.6464 14.3536L14.3536 13.6465ZM8 11C9.65685 11 11 9.65685 11 8C11 6.34315 9.65685 5 8 5C6.34315 5 5 6.34315 5 8C5 9.65685 6.34315 11 8 11ZM8 12C10.2091 12 12 10.2091 12 8C12 5.79086 10.2091 4 8 4C5.79086 4 4 5.79086 4 8C4 10.2091 5.79086 12 8 12ZM13.6464 1.64645L11.6464 3.64645L12.3536 4.35356L14.3536 2.35356L13.6464 1.64645ZM3.64645 11.6465L1.64645 13.6465L2.35355 14.3536L4.35355 12.3536L3.64645 11.6465ZM7.5 13V15H8.5V13H7.5ZM3 8.5H1V7.5H3L3 8.5ZM13 8.5H15V7.5H13V8.5Z" fill="#1A1E29"/>
</svg>
