<?xml version="1.0" encoding="UTF-8"?>
<svg xmlns="http://www.w3.org/2000/svg" xmlns:xlink="http://www.w3.org/1999/xlink" width="16px" height="16px" viewBox="0 0 16 16" version="1.1">
<g id="surface1">
<path style=" stroke:none;fill-rule:nonzero;fill:#FF7E00;fill-opacity:1;" d="M 15.140625 3.679688 C 15.242188 3.289062 15.140625 3 14.644531 3 L 13.007812 3 C 12.589844 3 12.398438 3.246094 12.296875 3.523438 C 12.296875 3.523438 11.464844 5.804688 10.285156 7.289062 C 9.90625 7.714844 9.730469 7.851562 9.523438 7.851562 C 9.417969 7.851562 9.261719 7.714844 9.261719 7.324219 L 9.261719 3.679688 C 9.261719 3.210938 9.144531 3 8.800781 3 L 6.226562 3 C 5.964844 3 5.8125 3.21875 5.8125 3.421875 C 5.8125 3.867188 6.398438 3.96875 6.460938 5.21875 L 6.460938 7.929688 C 6.460938 8.523438 6.367188 8.632812 6.160156 8.632812 C 5.601562 8.632812 4.253906 6.339844 3.453125 3.714844 C 3.292969 3.207031 3.132812 3 2.714844 3 L 1.078125 3 C 0.609375 3 0.515625 3.246094 0.515625 3.523438 C 0.515625 4.007812 1.070312 6.429688 3.101562 9.632812 C 4.457031 11.816406 6.359375 13 8.09375 13 C 9.136719 13 9.265625 12.738281 9.265625 12.285156 C 9.265625 10.195312 9.167969 10 9.691406 10 C 9.933594 10 10.351562 10.136719 11.320312 11.191406 C 12.433594 12.441406 12.617188 13 13.238281 13 L 14.875 13 C 15.339844 13 15.578125 12.738281 15.441406 12.21875 C 15.128906 11.128906 13.027344 8.882812 12.933594 8.734375 C 12.691406 8.382812 12.761719 8.226562 12.933594 7.914062 C 12.9375 7.914062 14.933594 4.75 15.140625 3.679688 Z M 15.140625 3.679688 "/>
</g>
</svg>
