<?xml version="1.0" encoding="UTF-8"?>
<svg xmlns="http://www.w3.org/2000/svg" xmlns:xlink="http://www.w3.org/1999/xlink" width="16px" height="16px" viewBox="0 0 16 16" version="1.1">
<g id="surface1">
<path style=" stroke:none;fill-rule:nonzero;fill:#FF7E00;fill-opacity:1;" d="M 13.605469 3.035156 C 12.105469 1.722656 10.113281 1 7.996094 1 C 3.625 1 0.0664062 4.113281 0.0664062 7.9375 C 0.0664062 9.160156 0.433594 10.351562 1.125 11.40625 L 0 15 L 4.203125 14.035156 C 5.359375 14.585938 6.664062 14.878906 7.992188 14.878906 L 7.996094 14.878906 C 12.363281 14.878906 16 11.765625 16 7.941406 C 16 6.085938 15.101562 4.347656 13.605469 3.035156 Z M 7.996094 13.710938 C 6.8125 13.710938 5.648438 13.429688 4.640625 12.90625 L 4.398438 12.78125 L 1.90625 13.351562 L 2.570312 11.226562 L 2.414062 11.007812 C 1.753906 10.085938 1.40625 9.027344 1.40625 7.9375 C 1.40625 4.757812 4.363281 2.171875 8 2.171875 C 9.761719 2.171875 11.414062 2.773438 12.65625 3.863281 C 13.898438 4.953125 14.664062 6.398438 14.660156 7.941406 C 14.660156 11.121094 11.628906 13.710938 7.996094 13.710938 Z M 11.609375 9.390625 C 11.414062 9.304688 10.4375 8.882812 10.257812 8.828125 C 10.074219 8.769531 9.941406 8.742188 9.8125 8.914062 C 9.679688 9.089844 9.300781 9.476562 9.183594 9.597656 C 9.066406 9.710938 8.949219 9.726562 8.753906 9.640625 C 7.589844 9.132812 6.824219 8.730469 6.058594 7.578125 C 5.855469 7.273438 6.261719 7.292969 6.640625 6.632812 C 6.703125 6.515625 6.671875 6.414062 6.621094 6.328125 C 6.570312 6.242188 6.175781 5.386719 6.011719 5.039062 C 5.851562 4.703125 5.6875 4.75 5.5625 4.742188 C 5.449219 4.738281 5.316406 4.738281 5.1875 4.738281 C 5.054688 4.738281 4.839844 4.78125 4.65625 4.953125 C 4.476562 5.128906 3.964844 5.546875 3.964844 6.398438 C 3.964844 7.253906 4.675781 8.078125 4.769531 8.195312 C 4.871094 8.308594 6.167969 10.058594 8.15625 10.8125 C 9.414062 11.289062 9.90625 11.328125 10.535156 11.246094 C 10.917969 11.195312 11.707031 10.828125 11.871094 10.421875 C 12.035156 10.015625 12.035156 9.667969 11.984375 9.597656 C 11.9375 9.519531 11.808594 9.476562 11.609375 9.390625 Z M 11.609375 9.390625 "/>
</g>
</svg>
