<svg width="96" height="35" viewBox="0 0 96 35" fill="none" xmlns="http://www.w3.org/2000/svg">
<path d="M45.728 19.747V12.9025H48.0094C48.7326 12.9025 49.3717 13.0241 49.9269 13.2675C50.4822 13.5108 50.9184 13.8851 51.2358 14.3908C51.553 14.8962 51.7117 15.5466 51.7117 16.3399C51.7117 17.1074 51.553 17.7415 51.2358 18.2494C50.9184 18.7549 50.4799 19.1316 49.92 19.3773C49.3602 19.6231 48.7186 19.747 47.9954 19.747H45.728ZM46.71 18.8648H47.9792C48.8329 18.8648 49.4955 18.6542 49.9691 18.233C50.4425 17.8117 50.6806 17.1871 50.6806 16.3611C50.6806 15.5256 50.4495 14.889 49.9901 14.4468C49.5304 14.0045 48.8492 13.7847 47.9488 13.7847H46.71V18.8648ZM56.081 19.9224C55.5887 19.9224 55.1338 19.829 54.7093 19.6441C54.2923 19.4633 53.9161 19.1998 53.6035 18.8695C53.2884 18.536 53.0383 18.1464 52.8664 17.7207C52.6892 17.2853 52.6004 16.8196 52.6004 16.3189C52.6004 15.8206 52.6867 15.3525 52.8616 14.9172C53.0366 14.482 53.2816 14.1005 53.5988 13.7729C53.9146 13.4454 54.292 13.1837 54.7093 13.0029C55.1315 12.8183 55.5887 12.7271 56.081 12.7271C56.5732 12.7271 57.0281 12.8183 57.4528 13.0029C57.8697 13.1843 58.2469 13.4459 58.563 13.7729C58.8819 14.1027 59.1338 14.4913 59.3049 14.9172C59.4821 15.3525 59.5709 15.8182 59.5709 16.3189C59.5709 16.8173 59.4821 17.2853 59.3049 17.7205C59.1327 18.1472 58.881 18.5371 58.563 18.8693C58.2484 19.1993 57.8708 19.4627 57.4528 19.6441C57.0281 19.8314 56.5732 19.9224 56.081 19.9224ZM56.081 18.998C56.5779 18.998 57.0118 18.8741 57.3804 18.6285C57.749 18.3828 58.036 18.0551 58.2389 17.648C58.4442 17.2408 58.5443 16.7938 58.5443 16.3096C58.5443 15.8157 58.4442 15.3667 58.2436 14.9594C58.043 14.5522 57.7582 14.2269 57.3897 13.9835C57.0211 13.7402 56.5849 13.6185 56.081 13.6185C55.5817 13.6185 55.1502 13.74 54.7816 13.9835C54.413 14.2269 54.1283 14.5522 53.9277 14.9594C53.7273 15.3665 53.627 15.8159 53.627 16.3096C53.627 16.7963 53.7273 17.2408 53.9277 17.6478C54.1283 18.0551 54.413 18.3828 54.7816 18.6285C55.1502 18.8765 55.5842 18.998 56.081 18.998ZM60.3383 18.7221L61.0336 18.0855C61.174 18.2388 61.3244 18.3827 61.4837 18.5163C61.6645 18.6658 61.8666 18.7872 62.0834 18.8765C62.312 18.9725 62.5733 19.0192 62.8672 19.0192C63.3174 19.0192 63.6673 18.914 63.9216 18.7057C64.1736 18.4975 64.2996 18.2212 64.2996 17.8797C64.2996 17.4959 64.1572 17.2126 63.8749 17.0279C63.5927 16.843 63.1774 16.6934 62.6316 16.5762C62.0507 16.4523 61.5795 16.2299 61.2155 15.9046C60.8516 15.5793 60.6672 15.1466 60.6672 14.6059C60.6672 14.2714 60.7536 13.9601 60.924 13.677C61.0942 13.3939 61.3507 13.1646 61.6914 12.9889C62.032 12.8135 62.452 12.7271 62.9488 12.7271C63.392 12.7271 63.7583 12.7878 64.0498 12.9072C64.3391 13.0266 64.5654 13.1623 64.7311 13.312C64.8943 13.4616 65.0111 13.5858 65.0787 13.6817L64.4232 14.2878C64.3695 14.2199 64.2762 14.131 64.1479 14.021C64.0172 13.9111 63.8517 13.8151 63.651 13.7287C63.4504 13.642 63.2031 13.5998 62.9092 13.5998C62.6222 13.5998 62.3866 13.649 62.2024 13.7495C62.018 13.8479 61.8828 13.9718 61.7942 14.1192C61.7053 14.2666 61.6611 14.4188 61.6611 14.5755C61.6611 14.9102 61.8011 15.1628 62.0809 15.329C62.3609 15.4976 62.7599 15.6378 63.2777 15.755C63.6184 15.8299 63.9425 15.9491 64.2505 16.1083C64.5523 16.2647 64.8105 16.4939 65.0016 16.7753C65.1953 17.0584 65.2933 17.4327 65.2933 17.8984C65.2933 18.2962 65.1883 18.6449 64.9761 18.9443C64.7638 19.2463 64.4791 19.4827 64.1175 19.6581C63.7559 19.8337 63.3476 19.9202 62.8904 19.9202C62.4682 19.9202 62.0904 19.8592 61.759 19.7353C61.4278 19.6113 61.1456 19.4569 60.91 19.2673C60.6697 19.0824 60.4808 18.9 60.3383 18.7221ZM68.1836 19.7493V13.7659H65.7388V12.9047H71.6012V13.7659H69.1658V19.7493H68.1836ZM71.0903 19.7493L73.7615 12.9047H74.7644L77.4356 19.7493H76.3415L75.6346 17.8399H72.8307L72.1237 19.7493H71.0903ZM73.1152 17.0092H75.3361L74.2304 14.0023L73.1152 17.0092ZM79.3883 19.7493L76.7498 12.9049H77.8438L79.9201 18.5305L81.9963 12.9074H83.0297L80.3912 19.7518L79.3883 19.7493ZM83.8182 19.7493V12.9049H84.791V16.0148L87.6463 12.9049H88.7708L86.2326 15.6967L89.0764 19.7495H87.9006L85.5678 16.394L84.791 17.2363V19.752L83.8182 19.7493ZM89.4753 19.7493L92.1464 12.9047H93.1494L95.8205 19.7493H94.7265L94.0195 17.8399H91.2156L90.5086 19.7493H89.4753ZM91.5001 17.0092H93.721L92.6153 14.0023L91.5001 17.0092ZM48.3431 25.6579L48.7303 26.0674C48.579 26.2353 48.3957 26.3714 48.1913 26.4676C47.9767 26.5681 47.7294 26.6196 47.4472 26.6196C47.0951 26.6196 46.7894 26.5424 46.5351 26.3902C46.2833 26.2417 46.0774 26.0263 45.9402 25.7678C45.8002 25.5058 45.728 25.2109 45.728 24.8811C45.728 24.5371 45.8026 24.2305 45.9496 23.9614C46.0926 23.6968 46.3046 23.476 46.563 23.3226C46.8243 23.1657 47.123 23.0862 47.4612 23.0862C47.7294 23.0862 47.9697 23.1354 48.1798 23.2336C48.3865 23.3292 48.5715 23.4662 48.7234 23.6361L48.3081 24.0386C48.2105 23.9171 48.088 23.8181 47.9488 23.7483C47.8088 23.6783 47.6478 23.6431 47.4706 23.6431C47.2348 23.6431 47.0367 23.6993 46.871 23.8093C46.7069 23.9179 46.5773 24.0714 46.4977 24.2515C46.4133 24.4382 46.3703 24.641 46.3719 24.8459C46.3708 25.0492 46.4137 25.2504 46.4977 25.4355C46.5775 25.6174 46.7059 25.7737 46.8687 25.8873C47.0297 26.0019 47.2303 26.0604 47.4636 26.0604C47.6478 26.0604 47.8158 26.0229 47.9675 25.9505C48.1123 25.8812 48.2404 25.7814 48.3431 25.6579ZM51.7187 23.1892H54.0864V26.5191H53.4518V23.7601H52.2809C52.2482 24.3312 52.1828 24.8224 52.0873 25.2391C51.9917 25.6532 51.8422 25.9737 51.6441 26.1985C51.4434 26.4232 51.1727 26.5354 50.8298 26.5354H50.7599C50.7365 26.5354 50.7132 26.5331 50.6898 26.5284V25.9692H50.7248C50.9885 25.9692 51.1867 25.8545 51.3197 25.6229C51.4527 25.3911 51.5483 25.0683 51.6019 24.6493C51.6556 24.2328 51.6952 23.7461 51.7187 23.1892ZM58.1827 26.6196C57.8865 26.6196 57.6207 26.5518 57.3849 26.4184C57.1494 26.285 56.9582 26.1026 56.8065 25.8733C56.6557 25.6421 56.5592 25.3796 56.5242 25.1057H55.7194V26.5191H55.0848V23.1892H55.7194V24.5533H56.5312C56.5732 24.275 56.6689 24.0246 56.8204 23.8045C56.9671 23.5858 57.1639 23.4053 57.3944 23.2781C57.6277 23.1494 57.889 23.084 58.1805 23.084C58.5049 23.084 58.7916 23.1634 59.0437 23.3248C59.293 23.4836 59.4978 23.7035 59.6386 23.9637C59.7831 24.2305 59.8577 24.5253 59.8577 24.8506C59.8577 25.1712 59.7856 25.466 59.6386 25.7351C59.4916 26.0042 59.2932 26.2195 59.0437 26.3787C58.7941 26.5378 58.5071 26.6196 58.1827 26.6196ZM58.1758 26.0697C58.3928 26.0697 58.577 26.0112 58.7335 25.892C58.8893 25.7742 59.0129 25.6188 59.0926 25.4403C59.1762 25.2583 59.2192 25.0602 59.2186 24.8599C59.2186 24.6563 59.1767 24.4621 59.0926 24.2773C59.0127 24.0955 58.8874 23.9375 58.7287 23.8185C58.5725 23.6993 58.3834 23.6384 58.1688 23.6384C57.9566 23.6384 57.7747 23.6969 57.6183 23.8163C57.462 23.9332 57.343 24.0854 57.2591 24.268C57.1756 24.4499 57.1326 24.6479 57.1331 24.8482C57.1331 25.0518 57.175 25.2461 57.2591 25.431C57.3388 25.6114 57.4622 25.7691 57.6183 25.8895C57.7747 26.0089 57.9589 26.0697 58.1758 26.0697ZM62.5126 23.3318C62.8181 23.3318 63.0864 23.402 63.3151 23.5449C63.546 23.6853 63.7257 23.8795 63.8587 24.1251C63.9892 24.3709 64.0568 24.647 64.0568 24.9536C64.0568 25.2694 63.9869 25.5525 63.8492 25.8053C63.7144 26.0541 63.5134 26.2607 63.2685 26.402C63.0187 26.5471 62.7272 26.622 62.3936 26.622C62.1887 26.6213 61.9853 26.5865 61.7917 26.5191C61.5911 26.4512 61.4091 26.3342 61.2412 26.1726C61.0732 26.0112 60.9402 25.7866 60.8399 25.501C60.7396 25.2157 60.6884 24.8599 60.6884 24.4294C60.6884 22.8921 61.4114 22.0519 62.8602 21.9045L63.686 21.8203L63.7629 22.3654L62.9231 22.4568C62.3679 22.5176 61.9666 22.665 61.7148 22.8991C61.4628 23.133 61.3183 23.4887 61.2808 23.9707C61.4111 23.7678 61.5942 23.6043 61.8104 23.498C62.0227 23.3858 62.2583 23.3318 62.5126 23.3318ZM62.3773 26.0697C62.585 26.0697 62.7644 26.0207 62.9209 25.9222C63.0756 25.8253 63.2001 25.6866 63.28 25.5222C63.3641 25.3561 63.406 25.1665 63.406 24.9606C63.406 24.654 63.3151 24.3989 63.1308 24.193C62.9466 23.9872 62.6968 23.8865 62.3773 23.8865C62.165 23.8865 61.9831 23.9357 61.8266 24.0316C61.6747 24.1262 61.5513 24.2604 61.4698 24.4199C61.3868 24.5879 61.3445 24.7731 61.3462 24.9606C61.3462 25.1595 61.3882 25.3421 61.4722 25.5128C61.5524 25.6782 61.6757 25.8189 61.8291 25.92C61.9831 26.0182 62.165 26.0697 62.3773 26.0697ZM66.4947 26.6196C66.161 26.6196 65.8625 26.5401 65.5988 26.3787C65.3394 26.2235 65.1267 26.0012 64.9829 25.7351C64.8361 25.466 64.7613 25.1712 64.7613 24.8506C64.7613 24.5253 64.8361 24.2305 64.9829 23.9637C65.1282 23.6999 65.3407 23.4795 65.5988 23.3248C65.8625 23.1657 66.161 23.084 66.4947 23.084C66.8283 23.084 67.1245 23.1634 67.3858 23.3248C67.6423 23.4815 67.8544 23.7014 68.0017 23.9637C68.1509 24.2305 68.228 24.5253 68.228 24.8506C68.228 25.1712 68.1534 25.466 68.0017 25.7351C67.8552 25.9992 67.643 26.2209 67.3858 26.3787C67.1245 26.5401 66.8283 26.6196 66.4947 26.6196ZM66.4947 26.0697C66.7257 26.0697 66.9216 26.0112 67.0826 25.892C67.2444 25.7748 67.3731 25.6175 67.4559 25.4355C67.5414 25.2532 67.586 25.0543 67.5864 24.8529C67.5864 24.6518 67.542 24.4574 67.4559 24.2725C67.3715 24.0902 67.2412 23.933 67.0779 23.8163C66.9122 23.6969 66.7187 23.6361 66.4924 23.6361C66.2661 23.6361 66.0724 23.6946 65.9067 23.8115C65.7442 23.9272 65.6141 24.0827 65.5289 24.2633C65.4422 24.4469 65.3976 24.6475 65.3982 24.8506C65.3982 25.0495 65.4426 25.2414 65.5312 25.4263C65.6163 25.6088 65.7464 25.7665 65.9092 25.8848C66.0747 26.0089 66.2683 26.0697 66.4947 26.0697ZM69.0817 26.5214V23.1914H70.8151C71.1627 23.1914 71.424 23.2711 71.5966 23.4278C71.7716 23.5847 71.8579 23.7858 71.8579 24.0246C71.8579 24.214 71.8065 24.3732 71.7062 24.5043C71.6059 24.6353 71.4799 24.7265 71.3284 24.7734C71.5083 24.8138 71.6737 24.9028 71.8065 25.0308C71.9418 25.1595 72.0119 25.3513 72.0119 25.6064C72.0119 25.824 71.9582 25.9995 71.8532 26.1329C71.7481 26.2663 71.6082 26.3645 71.4332 26.4254C71.2515 26.4874 71.0607 26.5183 70.8687 26.5166L69.0817 26.5214ZM69.6953 23.6853V24.5838H70.6751C70.8453 24.5838 70.9783 24.5463 71.0811 24.4716C71.1814 24.3967 71.2326 24.2773 71.2326 24.1181C71.2326 23.959 71.1837 23.8468 71.0856 23.7813C70.9877 23.7156 70.864 23.6853 70.7195 23.6853H69.6953ZM69.6953 25.0658V26.0277H70.7871C70.9364 26.0277 71.0741 25.9949 71.1954 25.9317C71.3167 25.8685 71.3796 25.7398 71.3796 25.5455C71.3796 25.3421 71.3072 25.2132 71.1602 25.1525C71.0132 25.094 70.8221 25.0635 70.5818 25.0635L69.6953 25.0658ZM72.8609 23.1914H73.4955V24.31H74.4403C74.8158 24.31 75.112 24.4084 75.3291 24.6073C75.546 24.8062 75.6533 25.0705 75.6533 25.4075C75.6533 25.7516 75.539 26.0229 75.3104 26.2243C75.0818 26.4254 74.7856 26.5236 74.4193 26.5236H72.8609V23.1914ZM73.4955 24.8109V26.0207H74.3422C74.578 26.0207 74.7505 25.9667 74.8647 25.8615C74.9768 25.7561 75.0327 25.6087 75.0327 25.4193C75.0327 25.2249 74.9745 25.0753 74.8555 24.9698C74.7389 24.8646 74.5663 24.8109 74.3399 24.8109H73.4955ZM79.535 26.622C79.2388 26.622 78.973 26.5541 78.7372 26.4207C78.5016 26.2873 78.3105 26.1049 78.1588 25.8755C78.0079 25.6444 77.9114 25.3819 77.8765 25.108H77.0717V26.5214H76.4371V23.1914H77.0717V24.5558H77.8835C77.9254 24.2773 78.0212 24.0269 78.1727 23.807C78.3194 23.5881 78.5161 23.4075 78.7467 23.2804C78.98 23.1517 79.2413 23.0862 79.5328 23.0862C79.8572 23.0862 80.1439 23.1657 80.3959 23.3273C80.6454 23.486 80.8502 23.7059 80.9909 23.9662C81.1354 24.2328 81.21 24.5276 81.21 24.8529C81.21 25.1735 81.1378 25.4683 80.9909 25.7374C80.8439 26.0065 80.6455 26.2218 80.3959 26.381C80.1486 26.5424 79.8594 26.622 79.535 26.622ZM79.528 26.0697C79.7451 26.0697 79.9293 26.0112 80.0858 25.892C80.2416 25.7742 80.3652 25.6188 80.4449 25.4403C80.5285 25.2583 80.5715 25.0602 80.5709 24.8599C80.5709 24.6563 80.529 24.4621 80.4449 24.2773C80.365 24.0955 80.2397 23.9375 80.081 23.8185C79.9248 23.6993 79.7357 23.6384 79.5211 23.6384C79.3089 23.6384 79.127 23.6969 78.9705 23.8163C78.8143 23.9332 78.6953 24.0854 78.6114 24.268C78.5278 24.4499 78.4849 24.6479 78.4854 24.8482C78.4854 25.0518 78.5273 25.2461 78.6114 25.431C78.6911 25.6114 78.8145 25.7691 78.9705 25.8895C79.127 26.0089 79.3134 26.0697 79.528 26.0697Z" fill="#243746"/>
<path d="M12.9122 8.8029C13.5546 6.39078 12.6213 -0.489394 6.58421 0.594371C3.05955 1.22437 0.0122229 6.78319 0.191889 12.2411C0.288711 15.1972 2.91977 19.8055 6.36529 23.5354C11.8102 29.4255 17.1977 33.5623 17.0433 31.5893C16.7849 28.205 14.8933 13.1559 11.864 13.2026C10.2705 13.2277 8.19936 14.9127 7.61801 16.1189C7.20523 16.9756 8.21375 16.6408 9.74646 17.4401C12.4168 18.8298 13.5834 22.8299 13.4109 23.5354C13.0808 24.8712 8.92809 22.3545 6.69563 17.1304C4.37683 11.712 6.03165 7.77328 7.46014 7.74816C8.59076 7.73005 9.44859 9.72834 9.66752 11.1648C9.9473 12.9829 12.284 11.1576 12.912 8.8029H12.9122Z" fill="#ED1846"/>
<path d="M12.5318 1.17404C12.0545 1.50531 13.4254 2.26852 14.7642 9.97675C15.4786 14.0882 16.5767 20.7452 17.3162 27.1214C17.7182 30.6029 18.4575 33.8505 18.8668 34.2933C19.3334 34.7938 19.6134 35.0026 20.3168 34.718C21.3648 34.2968 23.4178 32.8927 25.2305 31.4167C28.0552 29.116 29.1464 28.1584 29.2576 27.1683C29.3725 26.1566 25.6899 23.3951 24.0209 25.847C22.1042 28.6624 19.9651 32.5075 19.4553 25.8974C18.8633 18.2575 20.1049 8.12978 19.2401 6.09916C17.5423 2.10299 13.4901 0.508015 12.5318 1.17404Z" fill="#ED1846"/>
<path d="M26.0164 17.1812C26.0667 19.3197 25.0116 20.3711 23.8018 20.2774C21.9104 20.1263 22.9621 9.25696 23.5615 8.79599C24.2649 8.25246 25.9662 15.0785 26.0164 17.1812ZM22.5709 3.37037C22.1437 3.76998 20.9592 5.24595 20.7619 6.21093C19.9542 10.1569 20.0619 22.0344 20.2915 25.379C20.3993 26.9344 20.7976 27.9496 21.6483 27.3808C22.9117 26.5383 23.3066 23.9714 25.7329 23.6582C27.2081 23.4674 29.4477 25.5735 30.0794 26.1027C30.8439 26.7436 32.714 25.2674 32.3444 22.9418C31.35 16.6158 24.8391 1.24257 22.5709 3.37037Z" fill="#ED1846"/>
<path d="M25.3273 3.7052C33.0694 15.7088 31.9495 22.823 34.0025 22.7186C34.6918 22.6826 40.6283 13.9048 39.3361 6.18217C38.9879 4.10131 36.3141 2.00234 34.6558 1.21011C32.9868 0.411079 32.154 0.421785 32.6566 1.42628C35.9874 8.07608 34.6414 15.9573 33.6078 14.5027C32.391 12.7924 31.5941 6.78005 31.0378 2.86993C30.8727 1.71081 30.7506 0.702608 30.5066 0.382255C30.1621 -0.0678036 27.8507 0.310197 26.1959 1.37234C24.4623 2.48123 24.7711 2.84852 25.3273 3.7054V3.7052Z" fill="#ED1846"/>
</svg>
