<svg width="88" height="38" viewBox="0 0 88 38" fill="none" xmlns="http://www.w3.org/2000/svg">
<path fill-rule="evenodd" clip-rule="evenodd" d="M8.43632 27.7031C4.6545 27.7031 2.93329 28.7573 2.2545 30.9638L0.0969238 37.9754H73.6C77.3818 37.9754 79.103 36.9212 79.7818 34.7147L81.9393 27.7031H8.43632ZM17.2848 17.9212H13.6484C7.97571 17.9212 12.0969 5.73667 16.8727 5.73667H22.6181C23.5393 5.73667 25.1636 5.90828 25.9636 3.60377L27.2 0.0244141H19.3212C15.0545 0.0244141 11.7333 1.54441 9.33329 4.09409C5.18783 8.45796 3.78177 15.2734 4.77571 18.5341C5.72117 21.5496 8.29086 23.5354 12.3151 23.5844L15.4424 23.6089H19.2969L20.2424 20.7405C20.9454 18.7057 19.3697 17.9212 17.2848 17.9212ZM61.5515 12.8709L62.7393 8.9728H50.0606C47.9515 8.9728 47.006 9.56119 46.6424 10.787L45.4545 14.6851H58.1333C60.2424 14.6851 61.1878 14.0967 61.5515 12.8709ZM43.5636 19.7354L42.3757 23.6334H55.0545C57.1394 23.6334 58.109 23.0451 58.4727 21.8193L59.6606 17.9212H46.9818C44.8969 17.9212 43.9515 18.5096 43.5636 19.7354ZM64.509 3.947L65.6969 0.0489298H53.0181C50.909 0.0489298 49.9636 0.637317 49.6 1.86312L48.4121 5.76119H61.0909C63.1757 5.76119 64.1212 5.1728 64.509 3.947ZM45.3575 4.73151C44.8242 1.10312 42.909 0.0489298 38.2545 0.0489298H29.7697L24.8242 14.6851H27.9515C29.8181 14.6851 30.7636 14.7096 31.7575 12.0128L33.8181 5.73667H36.9697C39.6606 5.73667 39.0545 9.14441 37.6969 12.4541C36.4848 15.3715 34.3757 17.9457 31.8303 17.9457H26.5697C24.4606 17.9457 23.4909 18.5341 23.103 19.7599L21.7939 23.658H25.6484L29.4303 23.6334C32.7757 23.6089 35.5151 23.3638 38.7151 20.4463C42.109 17.3328 46.0363 9.34054 45.3575 4.73151ZM87.9757 0.0244141H80.6303L73.7212 7.4528C72.9212 8.31086 72.0969 9.16893 71.2969 10.1741H71.2242L74.6666 0.0244141H68.6787L60.606 23.6334H66.5939L69.1636 16.2051L71.8303 13.9251L73.9393 20.6425C74.5939 22.7263 75.2727 23.6334 76.7272 23.6334H81.309L76.606 10.4438L87.9757 0.0244141Z" fill="#00B33C"/>
<path d="M8.09694 33.538V35.4748H7.03027V30.1058H9.13936C9.74543 30.1058 10.2303 30.2529 10.5697 30.5716C10.9091 30.8903 11.103 31.3071 11.103 31.8219C11.103 32.3367 10.9333 32.7535 10.5697 33.0722C10.2303 33.3909 9.74543 33.538 9.13936 33.538H8.09694ZM8.09694 32.7045H9.13936C9.43027 32.7045 9.64846 32.6309 9.81815 32.4593C9.96361 32.2877 10.0363 32.0916 10.0363 31.8464C10.0363 31.5767 9.96361 31.3806 9.81815 31.209C9.6727 31.0374 9.43027 30.9638 9.13936 30.9638H8.09694V32.7045ZM14.1333 34.3225H12.2666L11.903 35.4748H10.8363L12.6545 30.1058H13.7454L15.5636 35.4748H14.4969L14.1333 34.3225ZM12.5333 33.4645H13.8666L13.2121 31.3561H13.1878L12.5333 33.4645ZM19.4666 30.9393H17.1151V31.9935H18.0363C18.6424 31.9935 19.1272 32.1651 19.4909 32.4838C19.8545 32.8025 20.0242 33.2193 20.0242 33.7342C20.0242 34.249 19.8545 34.6658 19.4909 34.9845C19.1272 35.3032 18.6424 35.4748 18.0363 35.4748H16V30.1058H19.4666V30.9393ZM17.1151 32.8271V34.6413H18.0363C18.3272 34.6413 18.5697 34.5432 18.7151 34.3716C18.8606 34.2 18.9575 33.9793 18.9575 33.7096C18.9575 33.4645 18.8848 33.2438 18.7151 33.0722C18.5454 32.9006 18.3272 32.8025 18.0363 32.8025H17.1151V32.8271ZM25.0182 33.2684C25.0182 33.9303 24.8242 34.4696 24.4121 34.9109C24 35.3522 23.4666 35.5484 22.8121 35.5484C22.1575 35.5484 21.6242 35.3277 21.2121 34.9109C20.8 34.4942 20.606 33.9303 20.606 33.2684V32.3122C20.606 31.6503 20.8 31.1109 21.2121 30.6696C21.6242 30.2284 22.1575 30.0322 22.8121 30.0322C23.4666 30.0322 24 30.2529 24.4121 30.6696C24.8242 31.0864 25.0424 31.6503 25.0424 32.3122V33.2684H25.0182ZM23.9515 32.3122C23.9515 31.8955 23.8545 31.5522 23.6363 31.2826C23.4182 31.0129 23.1515 30.8903 22.7878 30.8903C22.4242 30.8903 22.1333 31.0129 21.9394 31.2826C21.7454 31.5522 21.6485 31.8955 21.6485 32.3122V33.2929C21.6485 33.7096 21.7454 34.0774 21.9394 34.3225C22.1333 34.5922 22.4242 34.7148 22.7878 34.7148C23.1515 34.7148 23.4424 34.5922 23.6363 34.3225C23.8303 34.0529 23.9515 33.7096 23.9515 33.2929V32.3122ZM29.3818 30.9393H27.8788V35.4748H26.8121V30.9393H25.3091V30.1058H29.3575V30.9393H29.3818ZM32.4606 34.3225H30.5939L30.2303 35.4748H29.1636L30.9818 30.1058H32.0727L33.8909 35.4748H32.8242L32.4606 34.3225ZM30.8606 33.4645H32.1939L31.5394 31.3561H31.5151L30.8606 33.4645ZM37.6727 33.1213H35.4666V34.6413H38.0363V35.4748H34.4V30.1058H38.0363V30.9393H35.4666V32.2877H37.6727V33.1213ZM40.0727 30.1058L41.4303 34.0529H41.4545L42.8121 30.1058H44.1939V35.4748H43.1272V33.8813L43.2242 31.5032H43.2L41.7697 35.4748H41.0666L39.6606 31.5277H39.6363L39.7333 33.8813V35.4748H38.6666V30.1058H40.0727ZM47.0545 35.4748V30.1058H48.8485C49.4788 30.1058 49.9636 30.2284 50.303 30.4735C50.6424 30.7187 50.8363 31.0864 50.8363 31.5767C50.8363 31.8219 50.7636 32.0425 50.6424 32.2387C50.5212 32.4348 50.3272 32.5819 50.0848 32.68C50.4 32.7535 50.6424 32.9006 50.8121 33.1213C50.9818 33.3419 51.0545 33.6116 51.0545 33.9058C51.0545 34.4206 50.8848 34.8129 50.5454 35.0825C50.206 35.3522 49.7454 35.4748 49.1151 35.4748H47.0545ZM48.1212 32.3613H48.8969C49.1879 32.3613 49.406 32.3122 49.5515 32.1896C49.6969 32.0671 49.7697 31.8955 49.7697 31.6748C49.7697 31.4296 49.6969 31.2335 49.5272 31.1355C49.3818 31.0129 49.1394 30.9638 48.8485 30.9638H48.1212V32.3613ZM48.1212 33.0967V34.6413H49.0909C49.3818 34.6413 49.5757 34.5677 49.7454 34.4451C49.9151 34.3225 49.9636 34.1264 49.9636 33.9058C49.9636 33.6361 49.8909 33.44 49.7697 33.2929C49.6485 33.1458 49.4545 33.0967 49.1636 33.0967H48.1212ZM55.8545 33.6361C55.8788 34.2245 55.7091 34.6903 55.3454 35.0335C54.9818 35.3767 54.4969 35.5484 53.8424 35.5484C53.2121 35.5484 52.6788 35.3522 52.2909 34.9355C51.903 34.5187 51.6848 33.9793 51.6848 33.3419V32.2877C51.6848 31.6258 51.8788 31.1109 52.2666 30.6942C52.6545 30.2774 53.1636 30.0567 53.7939 30.0567C54.4485 30.0567 54.9575 30.2284 55.3212 30.5716C55.6848 30.9148 55.8788 31.3806 55.8545 31.969V31.9935H54.8121C54.8121 31.6503 54.7394 31.3806 54.5697 31.1845C54.4 30.9884 54.1333 30.9148 53.7939 30.9148C53.4788 30.9148 53.2121 31.0374 53.0424 31.3071C52.8485 31.5767 52.7515 31.8955 52.7515 32.3122V33.3909C52.7515 33.8077 52.8485 34.1264 53.0424 34.3961C53.2363 34.6658 53.503 34.7884 53.8424 34.7884C54.1818 34.7884 54.4242 34.6903 54.5697 34.5187C54.7394 34.3471 54.8121 34.0774 54.8121 33.7096H55.8545V33.6361ZM59.8788 33.1213H57.6727V34.6413H60.2424V35.4748H56.606V30.1058H60.2424V30.9393H57.6727V32.2877H59.8788V33.1213ZM64.3636 30.9393H61.9636V35.4748H60.8969V30.1058H64.3636V30.9393ZM69.2848 36.7987H68.3151V35.4748H65.0666V36.7987H64.0969L64.0242 34.6413H64.4363C64.6303 34.4696 64.8 34.2245 64.9454 33.8567C65.0909 33.5135 65.1636 32.9742 65.1879 32.2877L65.3333 30.0813H68.7757V34.6167H69.406L69.2848 36.7987ZM66.206 32.3122C66.1818 32.8516 66.1091 33.3174 66.0121 33.6851C65.9151 34.0774 65.7697 34.3961 65.6 34.6413H67.6848V30.9393H66.303L66.206 32.3122ZM72.8969 34.3225H71.0303L70.6666 35.4748H69.6L71.4182 30.1058H72.5091L74.3272 35.4748H73.2606L72.8969 34.3225ZM71.2969 33.4645H72.6303L71.9757 31.3561H71.9515L71.2969 33.4645ZM75.8788 33.6116H74.8121V30.1058H75.8788V33.6116ZM75.8788 35.4748H74.8121V34.5432H75.8788V35.4748Z" fill="white"/>
</svg>
