<svg width="56" height="15" viewBox="0 0 56 15" fill="none" xmlns="http://www.w3.org/2000/svg">
<path fill-rule="evenodd" clip-rule="evenodd" d="M10.5863 4.44033L8.00005 0L5.4138 4.44033L0.391602 5.52786L3.8154 9.35967L3.29777 14.4721L8.00005 12.4L12.7023 14.4721L12.1847 9.35967L15.6085 5.52786L10.5863 4.44033ZM13.7189 6.14185L9.94398 5.32441L8.00005 1.98689L6.05612 5.32441L2.28124 6.14185L4.85471 9.02198L4.46564 12.8647L8.00005 11.3072L11.5345 12.8647L11.1454 9.02198L13.7189 6.14185Z" fill="#FF7E00"/>
<path fill-rule="evenodd" clip-rule="evenodd" d="M30.5863 4.44033L28.0001 0L25.4138 4.44033L20.3916 5.52786L23.8154 9.35967L23.2978 14.4721L28.0001 12.4L32.7023 14.4721L32.1847 9.35967L35.6085 5.52786L30.5863 4.44033ZM33.7189 6.14185L29.944 5.32441L28.0001 1.98689L26.0561 5.32441L22.2812 6.14185L24.8547 9.02198L24.4656 12.8647L28.0001 11.3072L31.5345 12.8647L31.1454 9.02198L33.7189 6.14185Z" fill="#FF7E00"/>
<path fill-rule="evenodd" clip-rule="evenodd" d="M50.5863 4.44033L48.0001 0L45.4138 4.44033L40.3916 5.52786L43.8154 9.35967L43.2978 14.4721L48.0001 12.4L52.7023 14.4721L52.1847 9.35967L55.6085 5.52786L50.5863 4.44033ZM53.7189 6.14185L49.944 5.32441L48.0001 1.98689L46.0561 5.32441L42.2812 6.14185L44.8547 9.02198L44.4656 12.8647L48.0001 11.3072L51.5345 12.8647L51.1454 9.02198L53.7189 6.14185Z" fill="#FF7E00"/>
</svg>
