<svg width="120" height="120" viewBox="0 0 120 120" fill="none" xmlns="http://www.w3.org/2000/svg">
<path fill-rule="evenodd" clip-rule="evenodd" d="M4.03053 120V81.6646C1.42759 74.9447 0 67.6391 0 60C0 26.8629 26.8629 0 60 0C93.1371 0 120 26.8629 120 60C120 67.6391 118.572 74.9447 115.969 81.6646V120H60H4.03053ZM29.5359 79.145H43.1469L46.8333 76.1006C47.8222 75.284 48.4305 72.9996 48.3999 71.9556C48.3754 71.1204 47.7471 70.1582 47.436 69.7815C47.1249 69.4048 46.2989 68.6059 45.4834 68.4241C44.464 68.1967 42.1058 68.3622 41.117 69.1788L36.3847 73.0869C34.8901 74.3212 32.0405 76.8724 29.5359 79.145ZM57.8015 76.5802C57.5582 76.8457 56.9107 77.8109 56.0546 79.145H63.7622C62.9062 77.8109 62.2587 76.8457 62.0153 76.5802C61.9473 76.506 61.8827 76.4352 61.821 76.3676C60.9681 75.4332 60.6772 75.1145 59.9084 75.1145C59.1396 75.1145 58.8487 75.4332 57.9958 76.3676L57.9936 76.3701C57.9326 76.4369 57.8687 76.5069 57.8015 76.5802ZM76.5824 79.145H90.1935C87.6889 76.8724 84.8392 74.3212 83.3447 73.0869L78.6124 69.1788C77.6236 68.3622 75.2654 68.1967 74.246 68.4241C73.4305 68.6059 72.6044 69.4048 72.2933 69.7815C71.9822 70.1582 71.3539 71.1204 71.3295 71.9556C71.2989 72.9996 71.9072 75.284 72.896 76.1006L76.5824 79.145ZM49.1908 20.7023C51.7557 24.916 56.9954 33.4718 57.8015 34.3511C57.8358 34.3885 57.8692 34.425 57.9018 34.4607C57.9339 34.4959 57.9652 34.5302 57.9958 34.5637C58.8487 35.4981 59.1396 35.8168 59.9084 35.8168C60.6772 35.8168 60.9681 35.4981 61.821 34.5637L61.8217 34.563L61.8236 34.5608L61.8238 34.5606C61.8847 34.4939 61.9483 34.4242 62.0153 34.3511C62.8214 33.4718 68.0611 24.916 70.626 20.7023C69.3069 20.1893 64.855 19.3282 59.9084 19.3282C54.9618 19.3282 50.5099 20.1893 49.1908 20.7023ZM42.2248 23.1745L38.6851 24.9024C40.0072 28.0286 42.9811 34.956 44.2991 37.656L46.9914 43.1714C47.5539 44.3238 49.6326 45.4498 50.6547 45.6644C51.4725 45.836 52.555 45.4503 52.994 45.236C53.433 45.0217 54.403 44.4055 54.7707 43.6552C55.2303 42.7173 55.6212 40.3859 55.0586 39.2334L52.3663 33.718C51.0483 31.018 47.4159 24.4121 45.7645 21.4467L42.2248 23.1745ZM20.2409 50.7259L19.3596 54.565C22.622 55.5019 29.8789 57.5438 32.8073 58.216L38.7891 59.5892C40.0391 59.8762 42.2214 58.9674 43.0308 58.3073C43.6784 57.7793 44.0589 56.6949 44.1682 56.2188C44.2775 55.7426 44.408 54.6009 44.0556 53.8433C43.6151 52.8963 42.0476 51.1267 40.7977 50.8397L34.8159 49.4665C31.8875 48.7942 24.4666 47.4666 21.1223 46.8868L20.2409 50.7259ZM100.378 54.565L99.4964 50.7259L98.6151 46.8868C95.2707 47.4666 87.8499 48.7942 84.9214 49.4665L78.9396 50.8397C77.6897 51.1267 76.1223 52.8963 75.6818 53.8433C75.3294 54.6009 75.4599 55.7426 75.5692 56.2188C75.6785 56.6949 76.059 57.7793 76.7065 58.3073C77.516 58.9674 79.6983 59.8762 80.9482 59.5892L86.93 58.216C89.8584 57.5438 97.1153 55.5019 100.378 54.565ZM77.4593 23.1745L80.999 24.9024C79.6769 28.0286 76.7031 34.956 75.385 37.656L72.6927 43.1714C72.1302 44.3238 70.0515 45.4498 69.0294 45.6644C68.2117 45.836 67.1292 45.4503 66.6901 45.236C66.2511 45.0217 65.2811 44.4055 64.9134 43.6552C64.4539 42.7173 64.0629 40.3859 64.6255 39.2334L67.3178 33.718C68.6358 31.018 72.2682 24.4121 73.9196 21.4467L77.4593 23.1745ZM22.5087 43.6205C27.4018 44.2464 37.3568 45.4925 38.547 45.4115C38.6435 45.405 38.7356 45.3989 38.8237 45.3931L38.8282 45.3928L38.8324 45.3925L38.8343 45.3924C40.0968 45.3092 40.5273 45.2808 41.0071 44.6801C41.4869 44.0795 41.4195 43.6533 41.2217 42.4037C41.2074 42.3133 41.1925 42.2186 41.1769 42.1193C40.993 40.9406 37.5785 31.5068 35.8871 26.8729C34.663 27.5833 31.2116 30.5242 28.1243 34.3891C25.037 38.2539 22.9312 42.2697 22.5087 43.6205ZM81.2002 45.4115C82.3904 45.4925 92.3455 44.2464 97.2386 43.6205C96.8161 42.2697 94.7102 38.2539 91.6229 34.3891C88.5356 30.5242 85.0843 27.5833 83.8602 26.8729C82.1687 31.5068 78.7543 40.9406 78.5703 42.1193C78.5635 42.1632 78.5567 42.2062 78.5501 42.2483C78.5428 42.2944 78.5357 42.3394 78.5287 42.3834L78.5279 42.3886L78.5266 42.3965L78.5255 42.4037C78.3277 43.6533 78.2603 44.0795 78.7401 44.6801C79.22 45.2808 79.6505 45.3092 80.9129 45.3924C81.0042 45.3984 81.0999 45.4047 81.2002 45.4115ZM100.633 57.895C95.9751 59.5203 86.5117 62.8516 85.483 63.4557C85.3962 63.5066 85.3134 63.555 85.2344 63.6011C84.1421 64.2394 83.7696 64.457 83.6085 65.2088C83.4475 65.9605 83.6981 66.3117 84.4332 67.3414L84.4379 67.348C84.4896 67.4205 84.5438 67.4963 84.6003 67.5759C85.2914 68.5483 92.5597 75.4639 96.1428 78.8546C96.9207 77.6722 98.6951 73.4994 99.7313 68.6626C100.767 63.8257 100.858 59.2922 100.633 57.895ZM34.2643 63.4557C33.2355 62.8516 23.7721 59.5203 19.1146 57.895C18.8893 59.2922 18.9798 63.8257 20.016 68.6626C21.0521 73.4994 22.8266 77.6722 23.6045 78.8546C27.1875 75.4639 34.4559 68.5483 35.1469 67.5759C35.166 67.549 35.1849 67.5225 35.2035 67.4964C35.2404 67.4446 35.2762 67.3944 35.311 67.3457L35.314 67.3414C36.0491 66.3117 36.2998 65.9605 36.1387 65.2088C35.9777 64.457 35.6052 64.2394 34.5128 63.6011L34.4241 63.5493C34.3724 63.519 34.3191 63.4879 34.2643 63.4557ZM67.2367 59.9084C67.2367 63.9557 63.9557 67.2366 59.9084 67.2366C55.8611 67.2366 52.5802 63.9557 52.5802 59.9084C52.5802 55.8611 55.8611 52.5802 59.9084 52.5802C63.9557 52.5802 67.2367 55.8611 67.2367 59.9084ZM98.9313 83.542H100.214C100.214 83.8473 100.452 84.458 101.405 84.458C102.357 84.458 102.473 83.8473 102.412 83.542H103.695C103.756 84.2137 103.383 85.5573 101.405 85.5573C99.426 85.5573 98.9313 84.2137 98.9313 83.542ZM97.0992 86.4733H95.2672V96.1832H96.7328H97.0992H97.8321L105.71 88.4885H105.893V96.1832H107.725V86.4733H106.534H105.893H105.527L97.6489 94.1679H97.0992V86.4733ZM31.3282 86.4733H33.1603V94.1679H33.5267L41.4046 86.4733H42.1374H42.4122H43.9695V96.1832H42.1374V88.4885H41.5878L33.7099 96.1832H33.1603H32.6107H31.3282V86.4733ZM95.1756 105.16H97.0992V104.794C97.0992 103.984 97.7554 103.328 98.5649 103.328H105.893C106.601 103.328 107.176 103.902 107.176 104.611V105.16C107.176 105.869 106.601 106.443 105.893 106.443H98.3817V108.275H105.893C106.601 108.275 107.176 108.849 107.176 109.557V110.29C107.176 110.998 106.601 111.573 105.893 111.573H98.5649C97.7554 111.573 97.0992 110.916 97.0992 110.107V109.649H95.1756V110.84C95.1756 112.155 96.2419 113.221 97.5573 113.221H106.901C108.216 113.221 109.282 112.155 109.282 110.84V109.374C109.282 107.542 107.176 107.267 107.176 107.267C107.176 107.267 109.282 106.901 109.282 105.16V103.878C109.282 102.563 108.216 101.496 106.901 101.496H97.5573C96.2419 101.496 95.1756 102.562 95.1756 103.878V105.16ZM27.4809 103.328H25.8321V113.221H27.1145H27.4809H37.1908V111.756H27.4809V109.008H37.1908V107.542H27.4809V104.794H37.1908V103.328H27.4809ZM10.2595 103.328H11.9084V111.756H20.8855V103.328H22.5344V111.756H23.6336V112.672V113.221V114.687H21.8015V113.221H20.8855H11.9084H10.9924H10.2595V103.328ZM48.3664 86.4733H46.5344V96.1832H48.3664V91.9695H57.1603V96.1832H58.9924V86.4733H57.1603V90.5038H48.3664V86.4733ZM39.9389 103.328H41.771V107.359H50.5649V103.328H52.3969V113.221H50.5649V109.008H41.771V113.221H39.9389V103.328ZM54.7786 104.794V103.328H59.9084H61.7405H67.2366V104.794H61.7405V113.221H59.9084V104.794H54.7786ZM61.5573 86.4733H63.3893V90.5038H72.1832V86.4733H74.0153V96.1832H72.1832V91.9695H63.3893V96.1832H61.5573V86.4733ZM92.5191 86.4733H90.687V96.1832H92.5191V86.4733ZM11.9084 86.4733H13.5573V94.7176H19.4198V86.4733H21.0687V94.7176H26.9313V86.4733H28.5802V96.1832H27.2977H26.9313H21.0687H19.4198H13.5573H11.9084V94.7176V86.4733ZM78.4122 86.4733H76.5802V96.1832H78.4122V96.1466C78.5306 96.1706 78.6531 96.1832 78.7786 96.1832H86.8397C87.8515 96.1832 88.6718 95.363 88.6718 94.3512V90.3206C88.6718 89.3088 87.8515 88.4885 86.8397 88.4885H78.7786C78.6531 88.4885 78.5306 88.5012 78.4122 88.5252V86.4733ZM78.4122 89.9542V94.7176H86.1069C86.5116 94.7176 86.8397 94.3895 86.8397 93.9847V90.687C86.8397 90.2823 86.5116 89.9542 86.1069 89.9542H78.4122ZM69.6183 113.221H71.4504V110.986C71.5688 111.01 71.6913 111.023 71.8168 111.023H79.8779C80.8897 111.023 81.7099 110.203 81.7099 109.191V105.16C81.7099 104.148 80.8897 103.328 79.8779 103.328H71.8168C71.6913 103.328 71.5688 103.341 71.4504 103.365V103.328H69.6183V113.221ZM71.4504 104.794V109.557H79.145C79.5498 109.557 79.8779 109.229 79.8779 108.824V105.527C79.8779 105.122 79.5498 104.794 79.145 104.794H71.4504ZM92.3359 101.679H87.3893V103.328H90.3206V113.221H92.3359V103.328V102.229V101.679Z" fill="#C4C4C4"/>
</svg>
