<svg width="48" height="48" viewBox="0 0 48 48" fill="none" xmlns="http://www.w3.org/2000/svg">
<circle cx="24" cy="24" r="24" fill="#FF7E00"/>
<path d="M25.968 42H3.216V36.816L13.92 27.264C15.616 25.728 16.912 24.272 17.808 22.896C18.736 21.488 19.2 20.016 19.2 18.48V17.856C19.2 16.224 18.704 14.944 17.712 14.016C16.752 13.088 15.44 12.624 13.776 12.624C12.848 12.624 12.032 12.768 11.328 13.056C10.656 13.312 10.064 13.68 9.552 14.16C9.04 14.64 8.608 15.2 8.256 15.84C7.936 16.48 7.68 17.168 7.488 17.904L2.736 16.08C3.088 15.024 3.568 14.016 4.176 13.056C4.784 12.064 5.552 11.184 6.48 10.416C7.408 9.648 8.496 9.04 9.744 8.592C11.024 8.144 12.512 7.92 14.208 7.92C15.904 7.92 17.424 8.176 18.768 8.688C20.112 9.168 21.232 9.856 22.128 10.752C23.056 11.616 23.76 12.656 24.24 13.872C24.72 15.088 24.96 16.416 24.96 17.856C24.96 19.2 24.752 20.448 24.336 21.6C23.92 22.752 23.344 23.84 22.608 24.864C21.872 25.888 21.008 26.864 20.016 27.792C19.056 28.72 18.032 29.664 16.944 30.624L9.072 37.392H25.968V42Z" fill="white"/>
</svg>
