 <svg width="48" height="48" viewBox="0 0 48 48" fill="none" xmlns="http://www.w3.org/2000/svg">
<circle cx="24" cy="24" r="24" fill="#FF7E00"/>
<path d="M12.576 22.272C14.656 22.272 16.192 21.84 17.184 20.976C18.176 20.08 18.672 18.944 18.672 17.568V17.232C18.672 15.696 18.192 14.528 17.232 13.728C16.272 12.896 14.976 12.48 13.344 12.48C11.744 12.48 10.384 12.848 9.264 13.584C8.144 14.288 7.2 15.28 6.432 16.56L2.832 13.44C3.344 12.704 3.92 12 4.56 11.328C5.2 10.656 5.952 10.08 6.816 9.6C7.68 9.088 8.656 8.688 9.744 8.4C10.832 8.08 12.08 7.92 13.488 7.92C15.056 7.92 16.512 8.112 17.856 8.496C19.2 8.88 20.352 9.456 21.312 10.224C22.272 10.96 23.024 11.872 23.568 12.96C24.112 14.016 24.384 15.216 24.384 16.56C24.384 17.616 24.208 18.576 23.856 19.44C23.536 20.304 23.072 21.072 22.464 21.744C21.888 22.384 21.2 22.912 20.4 23.328C19.632 23.744 18.816 24.048 17.952 24.24V24.48C18.912 24.672 19.808 24.992 20.64 25.44C21.504 25.856 22.256 26.416 22.896 27.12C23.536 27.792 24.032 28.608 24.384 29.568C24.768 30.496 24.96 31.568 24.96 32.784C24.96 34.256 24.672 35.6 24.096 36.816C23.52 38 22.704 39.024 21.648 39.888C20.624 40.752 19.376 41.424 17.904 41.904C16.432 42.352 14.8 42.576 13.008 42.576C11.44 42.576 10.064 42.4 8.88 42.048C7.696 41.728 6.64 41.296 5.712 40.752C4.816 40.176 4.016 39.536 3.312 38.832C2.64 38.096 2.048 37.344 1.536 36.576L5.52 33.456C5.936 34.128 6.368 34.752 6.816 35.328C7.296 35.872 7.824 36.352 8.4 36.768C9.008 37.152 9.68 37.456 10.416 37.68C11.184 37.904 12.048 38.016 13.008 38.016C15.056 38.016 16.624 37.536 17.712 36.576C18.8 35.584 19.344 34.224 19.344 32.496V32.16C19.344 30.432 18.768 29.12 17.616 28.224C16.464 27.328 14.832 26.88 12.72 26.88H9.168V22.272H12.576Z" fill="white"/>
</svg>